<svg width="160" height="160" viewBox="0 0 160 160" fill="none" xmlns="http://www.w3.org/2000/svg">
<path d="M119.517 0H40.4831C18.1246 0 0 18.125 0 40.4835V119.517C0 141.875 18.1246 160 40.4831 160H119.517C141.875 160 160 141.875 160 119.517V40.4835C160 18.125 141.875 0 119.517 0Z" fill="#00DDB3"/>
<path d="M121.615 35.8364C94.0729 35.8364 83.8559 55.5013 75.6603 71.2992L70.2992 81.4064C61.5983 98.1601 55.1058 108.344 38.3851 108.344C36.2872 108.344 34.2751 109.177 32.7917 110.661C31.3083 112.144 30.4749 114.156 30.4749 116.254C30.4749 118.352 31.3083 120.364 32.7917 121.847C34.2751 123.331 36.2872 124.164 38.3851 124.164C65.927 124.164 76.1441 104.499 84.3397 88.6901L89.7007 78.5939C98.4016 61.8402 104.883 51.6562 121.615 51.6562C123.713 51.6562 125.725 50.8229 127.208 49.3395C128.692 47.8561 129.525 45.8442 129.525 43.7463C129.525 41.6485 128.692 39.6365 127.208 38.1531C125.725 36.6697 123.713 35.8364 121.615 35.8364Z" fill="white"/>
</svg>
